<svg version="1.0" xmlns="http://www.w3.org/2000/svg" width="457.333" height="457.333" viewBox="0 0 343 343">
  <path d="M101 15.1c-2.5.4-5.8 1-7.5 1.4-1.6.3-4.7.9-6.7 1.2-2.1.3-3.8 1-3.8 1.6 0 .6-.3.8-.6.4-.3-.3-3.2.5-6.3 1.9-3.1 1.4-5.7 2.5-5.9 2.4-.7-.1-10.1 5.1-10.7 6-.4.6-1 .8-1.5.5-.5-.3-1.3.3-1.9 1.2-.6 1-1.1 1.5-1.1 1.1 0-.5-1.1.2-2.4 1.3-1.3 1.2-2.6 1.9-2.8 1.8-.3-.4-15.5 14.7-19.5 19.4-2.5 3-9.1 13.1-10.4 16.1-.5 1.2-1.3 2.8-1.8 3.6-1.1 1.8-5.1 11.5-5.7 13.9-7.8 30.3-6.3 53.3 5.2 77.8 6.9 14.9 12.7 22.3 37.4 47.1l23.1 23.1 12.5-12.5c12.4-12.6 12.5-12.7 10.2-14.2-1.2-.9-4.2-3.8-6.7-6.5-2.6-2.7-11.9-12.2-20.7-21.1-21-21.2-26.1-29.7-29.7-49-5-26.8 6.9-55.3 29.8-71.3 5.1-3.6 16.2-8.9 21-10 .6-.1 2.8-.7 5-1.3 4.5-1.3 21.8-1.7 28-.7 6.8 1.1 22.5 7.1 23.3 8.9.2.5.9.8 1.6.8.7 0 2.1.8 3.2 1.7 1 1 3.7 3.1 5.9 4.7 2.2 1.7 4.7 3.7 5.5 4.6 2.7 2.9 4.5 2.9 8.1-.1 5.3-4.5 5.3-4.4 10.5-8.2 2.7-1.9 7.3-4.6 10.2-5.9 2.9-1.3 5-2.6 4.8-2.9-.2-.2.5-.5 1.7-.6 1.2 0 4.7-.9 7.7-1.8 6.4-1.9 22-2.6 28.8-1.3 2.6.5 5.5 1 6.5 1.1.9.1 1.7.5 1.7.9s.3.7.8.6c1.2-.2 6.6 1.4 8 2.5.6.5 1.2.6 1.2.1s.7 0 1.6 1.1c.8 1.1 1.7 1.9 1.9 1.8 1.1-.4 4.5 1 4.5 1.8 0 .5.6.9 1.3.9.7 0 2.3.9 3.5 2 1.2 1.1 2.3 2 2.6 2 1 0 10.3 9.9 13.8 14.6 11.9 16.3 16.4 40.8 11 60.4l-1.7 6.5 12.9 12.7c7.1 7.1 13.2 12.8 13.5 12.8.4 0 1.2-1.2 1.8-2.8 8.3-20.1 10.3-28.4 10.8-44.2.8-30.5-10.2-58.2-31.4-78.9-4.7-4.6-9.3-8.9-10.1-9.6-3.5-2.8-10.9-7.5-11.9-7.5-.6 0-1.1-.4-1.1-.9s-1-1.2-2.2-1.6c-1.3-.4-2.5-.8-2.8-1-.3-.1-2.7-1.2-5.4-2.4-2.7-1.3-5.4-2.4-6-2.5-.6-.1-1.5-.4-2.1-.7-1.2-.7-5.6-2-12-3.4-10.2-2.2-35.6-2.6-39.4-.6-1.4.8-2.1.9-1.7.2.4-.6-.9-.5-3.3.4-2.1.7-4.1 1.1-4.4.9-.3-.3-1.3-.1-2.4.4-1 .6-4 1.8-6.8 2.8-7.4 2.5-15.8 6.4-17.8 8.2-1.6 1.4-2.5 1.1-11.2-3.2-5.2-2.6-10.1-4.9-10.8-5-.6-.2-3.2-.8-5.7-1.5s-4.7-1.3-5-1.3c-.3 0-1.6-.5-3-1s-4.1-1.2-6-1.4c-6.3-.9-26.4-1.1-31-.3z"/>
  <path d="m227.4 224-56.8 56.8-25.8-26.1c-14.2-14.3-26-25.8-26.3-25.6-4.6 4-23.5 23.6-23.5 24.4 0 .5 3.3 4.2 7.2 8.1 4 3.9 20.9 20.9 37.6 37.8 16.7 16.8 30.5 30.6 30.7 30.6.9 0 137.5-137.2 137.5-138.1 0-.6-5.4-6.3-11.9-12.9l-11.9-11.8-56.8 56.8z"/>
</svg>
