<?xml version="1.0" standalone="no"?>
<!DOCTYPE svg PUBLIC "-//W3C//DTD SVG 20010904//EN"
 "http://www.w3.org/TR/2001/REC-SVG-20010904/DTD/svg10.dtd">
<svg version="1.0" xmlns="http://www.w3.org/2000/svg"
 width="343.000000pt" height="343.000000pt" viewBox="0 0 343.000000 343.000000"
 preserveAspectRatio="xMidYMid meet">
<metadata>
Created by potrace 1.11, written by Peter Selinger 2001-2013
</metadata>
<g transform="translate(0.000000,343.000000) scale(0.100000,-0.100000)"
fill="#000000" stroke="none">
<path d="M1010 3280 c-150 -21 -332 -90 -457 -173 -71 -48 -232 -203 -281
-272 -256 -361 -261 -855 -11 -1227 39 -58 491 -530 514 -536 6 -1 64 52 130
117 l119 120 -225 228 c-167 169 -236 246 -267 298 -230 389 -68 880 345 1047
244 98 523 58 725 -105 22 -18 55 -45 74 -60 l34 -29 82 66 c92 74 212 138
303 161 33 9 101 18 152 20 339 12 642 -214 729 -545 24 -91 24 -254 0 -349
l-19 -73 129 -129 c100 -101 131 -126 140 -116 21 21 82 189 100 272 22 106
23 332 1 432 -49 218 -158 415 -309 559 -219 209 -487 310 -793 298 -102 -3
-132 -8 -225 -32 -56 -14 -149 -51 -223 -87 l-69 -34 -74 39 c-41 21 -74 37
-74 35 0 -2 -20 5 -45 16 -25 11 -55 22 -65 25 -11 2 -30 6 -42 9 -125 30
-289 40 -398 25z"/>
<path d="M2270 1188 l-565 -569 -258 262 -258 263 -120 -120 c-65 -65 -119
-123 -119 -129 0 -6 170 -180 378 -388 l377 -377 685 684 c377 377 686 690
688 696 4 12 -227 252 -238 248 -3 0 -259 -257 -570 -570z"/>
</g>
</svg>
